<?xml version="1.0" standalone="no"?>
<!DOCTYPE svg PUBLIC "-//W3C//DTD SVG 20010904//EN"
 "http://www.w3.org/TR/2001/REC-SVG-20010904/DTD/svg10.dtd">
<svg version="1.0" xmlns="http://www.w3.org/2000/svg"
 width="16.000000pt" height="16.000000pt" viewBox="0 0 16.000000 16.000000"
 preserveAspectRatio="xMidYMid meet">
<metadata>
Created by potrace 1.11, written by Peter Selinger 2001-2013
</metadata>
<g transform="translate(0.000000,16.000000) scale(0.012500,-0.012500)"
fill="#000000" stroke="none">
<path d="M521 1180 c-105 -25 -193 -74 -270 -150 -79 -78 -122 -155 -151 -270
-42 -165 -4 -266 165 -436 142 -143 292 -238 375 -238 83 0 232 95 376 238
168 169 207 271 164 436 -29 115 -72 192 -151 270 -80 79 -164 124 -276 150
-100 24 -134 24 -232 0z m186 -43 c-7 -5 8 -6 33 -3 31 3 39 2 25 -4 -19 -8
-19 -9 3 -11 12 -1 27 -3 32 -4 6 -1 22 -3 38 -4 19 -1 23 -4 14 -10 -10 -6
-9 -10 7 -14 12 -3 19 -1 16 4 -3 5 7 1 24 -8 16 -10 28 -20 25 -24 -4 -7 35
-22 50 -20 5 1 6 -5 2 -14 -3 -9 -2 -14 3 -11 12 8 91 -73 91 -93 0 -5 7 -14
16 -22 19 -16 55 -85 48 -92 -3 -3 3 -20 12 -39 29 -54 26 -190 -6 -259 -14
-29 -32 -61 -40 -70 -8 -8 -24 -27 -35 -41 -55 -71 -141 -151 -231 -215 -38
-28 -113 -65 -161 -81 -47 -16 -113 8 -216 76 -92 61 -131 95 -232 206 -25 27
-64 85 -86 126 -20 38 -24 59 -24 135 1 67 5 99 19 123 9 19 15 36 12 39 -7 7
29 76 48 92 9 8 16 17 16 22 0 20 79 101 91 93 5 -3 6 2 3 11 -4 9 -3 15 2 14
15 -2 54 13 50 20 -3 4 9 14 25 24 17 9 27 13 24 8 -3 -5 4 -7 16 -4 16 4 17
8 7 14 -9 6 -5 9 15 10 15 1 32 3 37 4 6 1 20 3 33 4 21 2 21 3 2 11 -14 6 -6
7 25 4 25 -3 40 -2 33 3 -6 4 23 8 67 8 44 0 73 -4 67 -8z"/>
<path d="M290 802 c-42 -22 -80 -90 -80 -144 0 -117 103 -242 209 -255 132
-15 194 127 120 276 -33 65 -75 105 -136 127 -51 18 -72 17 -113 -4z m108 -42
c18 -11 35 -27 38 -35 7 -18 -17 -43 -56 -56 -24 -9 -36 -7 -62 8 -43 25 -47
54 -12 82 33 26 50 26 92 1z"/>
<path d="M877 806 c-61 -23 -103 -62 -136 -127 -74 -149 -12 -291 121 -276 82
10 146 68 190 172 60 141 -44 279 -175 231z m78 -38 c28 -12 31 -25 14 -61
-19 -43 -94 -63 -119 -32 -7 8 -16 12 -21 9 -16 -10 -9 13 13 41 16 21 62 50
85 55 1 0 14 -5 28 -12z"/>
<path d="M480 316 c0 -8 19 -36 43 -62 41 -45 47 -48 103 -52 51 -3 64 0 92
21 38 29 84 86 77 98 -3 4 -29 -2 -57 -13 -57 -21 -155 -26 -188 -8 -45 24
-70 30 -70 16z"/>
</g>
</svg>
